<mxfile host="app.diagrams.net" agent="Mozilla/5.0 (Windows NT 10.0; Win64; x64) AppleWebKit/537.36 (KHTML, like Gecko) Chrome/134.0.0.0 Safari/537.36" version="26.1.1">
  <diagram id="C5RBs43oDa-KdzZeNtuy" name="Page-1">
    <mxGraphModel dx="1088" dy="406" grid="1" gridSize="10" guides="1" tooltips="1" connect="1" arrows="1" fold="1" page="1" pageScale="1" pageWidth="827" pageHeight="1169" math="0" shadow="0">
      <root>
        <mxCell id="WIyWlLk6GJQsqaUBKTNV-0" />
        <mxCell id="WIyWlLk6GJQsqaUBKTNV-1" parent="WIyWlLk6GJQsqaUBKTNV-0" />
        <mxCell id="zkfFHV4jXpPFQw0GAbJ--0" value="PROVEEDOR" style="swimlane;fontStyle=2;align=center;verticalAlign=top;childLayout=stackLayout;horizontal=1;startSize=26;horizontalStack=0;resizeParent=1;resizeLast=0;collapsible=1;marginBottom=0;rounded=0;shadow=0;strokeWidth=1;fillColor=#FF6666;" parent="WIyWlLk6GJQsqaUBKTNV-1" vertex="1">
          <mxGeometry x="180" y="10" width="160" height="240" as="geometry">
            <mxRectangle x="180" y="10" width="160" height="26" as="alternateBounds" />
          </mxGeometry>
        </mxCell>
        <mxCell id="zkfFHV4jXpPFQw0GAbJ--1" value="        id_proveedor(PK)" style="text;align=left;verticalAlign=top;spacingLeft=4;spacingRight=4;overflow=hidden;rotatable=0;points=[[0,0.5],[1,0.5]];portConstraint=eastwest;strokeColor=#FF6666;" parent="zkfFHV4jXpPFQw0GAbJ--0" vertex="1">
          <mxGeometry y="26" width="160" height="44" as="geometry" />
        </mxCell>
        <mxCell id="zkfFHV4jXpPFQw0GAbJ--2" value="               nombre" style="text;align=left;verticalAlign=top;spacingLeft=4;spacingRight=4;overflow=hidden;rotatable=0;points=[[0,0.5],[1,0.5]];portConstraint=eastwest;rounded=0;shadow=0;html=0;" parent="zkfFHV4jXpPFQw0GAbJ--0" vertex="1">
          <mxGeometry y="70" width="160" height="26" as="geometry" />
        </mxCell>
        <mxCell id="VQyHc1rsR1vsa8HpWnLg-6" value="" style="verticalLabelPosition=bottom;shadow=0;dashed=0;align=center;html=1;verticalAlign=top;strokeWidth=1;shape=mxgraph.mockup.markup.line;strokeColor=#999999;" vertex="1" parent="zkfFHV4jXpPFQw0GAbJ--0">
          <mxGeometry y="96" width="160" height="20" as="geometry" />
        </mxCell>
        <mxCell id="zkfFHV4jXpPFQw0GAbJ--3" value="               dirección" style="text;align=left;verticalAlign=top;spacingLeft=4;spacingRight=4;overflow=hidden;rotatable=0;points=[[0,0.5],[1,0.5]];portConstraint=eastwest;rounded=0;shadow=0;html=0;" parent="zkfFHV4jXpPFQw0GAbJ--0" vertex="1">
          <mxGeometry y="116" width="160" height="26" as="geometry" />
        </mxCell>
        <mxCell id="VQyHc1rsR1vsa8HpWnLg-7" value="" style="verticalLabelPosition=bottom;shadow=0;dashed=0;align=center;html=1;verticalAlign=top;strokeWidth=1;shape=mxgraph.mockup.markup.line;strokeColor=#999999;" vertex="1" parent="zkfFHV4jXpPFQw0GAbJ--0">
          <mxGeometry y="142" width="160" height="20" as="geometry" />
        </mxCell>
        <mxCell id="VQyHc1rsR1vsa8HpWnLg-0" value="                ciudad" style="text;align=left;verticalAlign=top;spacingLeft=4;spacingRight=4;overflow=hidden;rotatable=0;points=[[0,0.5],[1,0.5]];portConstraint=eastwest;rounded=0;shadow=0;html=0;" vertex="1" parent="zkfFHV4jXpPFQw0GAbJ--0">
          <mxGeometry y="162" width="160" height="26" as="geometry" />
        </mxCell>
        <mxCell id="VQyHc1rsR1vsa8HpWnLg-8" value="" style="verticalLabelPosition=bottom;shadow=0;dashed=0;align=center;html=1;verticalAlign=top;strokeWidth=1;shape=mxgraph.mockup.markup.line;strokeColor=#999999;" vertex="1" parent="zkfFHV4jXpPFQw0GAbJ--0">
          <mxGeometry y="188" width="160" height="20" as="geometry" />
        </mxCell>
        <mxCell id="VQyHc1rsR1vsa8HpWnLg-1" value="              provincia" style="text;align=left;verticalAlign=top;spacingLeft=4;spacingRight=4;overflow=hidden;rotatable=0;points=[[0,0.5],[1,0.5]];portConstraint=eastwest;rounded=0;shadow=0;html=0;" vertex="1" parent="zkfFHV4jXpPFQw0GAbJ--0">
          <mxGeometry y="208" width="160" height="32" as="geometry" />
        </mxCell>
        <mxCell id="VQyHc1rsR1vsa8HpWnLg-39" value="PIEZA" style="swimlane;fontStyle=2;align=center;verticalAlign=top;childLayout=stackLayout;horizontal=1;startSize=26;horizontalStack=0;resizeParent=1;resizeLast=0;collapsible=1;marginBottom=0;rounded=0;shadow=0;strokeWidth=1;fillColor=#99FFCC;" vertex="1" parent="WIyWlLk6GJQsqaUBKTNV-1">
          <mxGeometry x="330" y="320" width="164" height="264" as="geometry">
            <mxRectangle x="230" y="140" width="160" height="26" as="alternateBounds" />
          </mxGeometry>
        </mxCell>
        <mxCell id="VQyHc1rsR1vsa8HpWnLg-94" value="" style="edgeStyle=elbowEdgeStyle;elbow=vertical;sourcePerimeterSpacing=0;targetPerimeterSpacing=0;startArrow=none;endArrow=none;rounded=0;curved=0;" edge="1" target="VQyHc1rsR1vsa8HpWnLg-93" parent="VQyHc1rsR1vsa8HpWnLg-39">
          <mxGeometry relative="1" as="geometry">
            <mxPoint x="30" y="34" as="sourcePoint" />
          </mxGeometry>
        </mxCell>
        <mxCell id="VQyHc1rsR1vsa8HpWnLg-93" value="&lt;span style=&quot;text-align: left; text-wrap-mode: nowrap;&quot;&gt;&amp;nbsp; &amp;nbsp;id_pieza(PK)&lt;/span&gt;" style="whiteSpace=wrap;html=1;align=center;verticalAlign=middle;treeFolding=1;treeMoving=1;newEdgeStyle={&quot;edgeStyle&quot;:&quot;elbowEdgeStyle&quot;,&quot;startArrow&quot;:&quot;none&quot;,&quot;endArrow&quot;:&quot;none&quot;};strokeColor=#FFFF00;" vertex="1" parent="VQyHc1rsR1vsa8HpWnLg-39">
          <mxGeometry y="26" width="164" height="60" as="geometry" />
        </mxCell>
        <mxCell id="VQyHc1rsR1vsa8HpWnLg-42" value="                nombre" style="text;align=left;verticalAlign=top;spacingLeft=4;spacingRight=4;overflow=hidden;rotatable=0;points=[[0,0.5],[1,0.5]];portConstraint=eastwest;rounded=0;shadow=0;html=0;" vertex="1" parent="VQyHc1rsR1vsa8HpWnLg-39">
          <mxGeometry y="86" width="164" height="26" as="geometry" />
        </mxCell>
        <mxCell id="VQyHc1rsR1vsa8HpWnLg-43" value="" style="verticalLabelPosition=bottom;shadow=0;dashed=0;align=center;html=1;verticalAlign=top;strokeWidth=1;shape=mxgraph.mockup.markup.line;strokeColor=#999999;" vertex="1" parent="VQyHc1rsR1vsa8HpWnLg-39">
          <mxGeometry y="112" width="164" height="20" as="geometry" />
        </mxCell>
        <mxCell id="VQyHc1rsR1vsa8HpWnLg-44" value="                  color" style="text;align=left;verticalAlign=top;spacingLeft=4;spacingRight=4;overflow=hidden;rotatable=0;points=[[0,0.5],[1,0.5]];portConstraint=eastwest;rounded=0;shadow=0;html=0;" vertex="1" parent="VQyHc1rsR1vsa8HpWnLg-39">
          <mxGeometry y="132" width="164" height="26" as="geometry" />
        </mxCell>
        <mxCell id="VQyHc1rsR1vsa8HpWnLg-45" value="" style="verticalLabelPosition=bottom;shadow=0;dashed=0;align=center;html=1;verticalAlign=top;strokeWidth=1;shape=mxgraph.mockup.markup.line;strokeColor=#999999;" vertex="1" parent="VQyHc1rsR1vsa8HpWnLg-39">
          <mxGeometry y="158" width="164" height="20" as="geometry" />
        </mxCell>
        <mxCell id="VQyHc1rsR1vsa8HpWnLg-97" value="" style="edgeStyle=elbowEdgeStyle;elbow=vertical;sourcePerimeterSpacing=0;targetPerimeterSpacing=0;startArrow=none;endArrow=none;rounded=0;curved=0;" edge="1" target="VQyHc1rsR1vsa8HpWnLg-96" parent="VQyHc1rsR1vsa8HpWnLg-39">
          <mxGeometry relative="1" as="geometry">
            <mxPoint x="36" y="228" as="sourcePoint" />
          </mxGeometry>
        </mxCell>
        <mxCell id="VQyHc1rsR1vsa8HpWnLg-46" value="                 precio" style="text;align=left;verticalAlign=top;spacingLeft=4;spacingRight=4;overflow=hidden;rotatable=0;points=[[0,0.5],[1,0.5]];portConstraint=eastwest;rounded=0;shadow=0;html=0;" vertex="1" parent="VQyHc1rsR1vsa8HpWnLg-39">
          <mxGeometry y="178" width="164" height="26" as="geometry" />
        </mxCell>
        <mxCell id="VQyHc1rsR1vsa8HpWnLg-96" value="&lt;span style=&quot;text-align: left; text-wrap-mode: nowrap;&quot;&gt;&amp;nbsp; id_categoría(FK)&lt;/span&gt;" style="whiteSpace=wrap;html=1;align=center;verticalAlign=middle;treeFolding=1;treeMoving=1;newEdgeStyle={&quot;edgeStyle&quot;:&quot;elbowEdgeStyle&quot;,&quot;startArrow&quot;:&quot;none&quot;,&quot;endArrow&quot;:&quot;none&quot;};strokeColor=#B3FF66;" vertex="1" parent="VQyHc1rsR1vsa8HpWnLg-39">
          <mxGeometry y="204" width="164" height="60" as="geometry" />
        </mxCell>
        <mxCell id="VQyHc1rsR1vsa8HpWnLg-52" value="CATEGORIA" style="swimlane;fontStyle=2;align=center;verticalAlign=top;childLayout=stackLayout;horizontal=1;startSize=26;horizontalStack=0;resizeParent=1;resizeLast=0;collapsible=1;marginBottom=0;rounded=0;shadow=0;strokeWidth=1;fillColor=#66B2FF;" vertex="1" parent="WIyWlLk6GJQsqaUBKTNV-1">
          <mxGeometry x="330" y="670" width="167" height="110" as="geometry">
            <mxRectangle x="230" y="140" width="160" height="26" as="alternateBounds" />
          </mxGeometry>
        </mxCell>
        <mxCell id="VQyHc1rsR1vsa8HpWnLg-53" value="           id_categoria(PK)" style="text;align=left;verticalAlign=top;spacingLeft=4;spacingRight=4;overflow=hidden;rotatable=0;points=[[0,0.5],[1,0.5]];portConstraint=eastwest;strokeColor=#B3FF66;" vertex="1" parent="VQyHc1rsR1vsa8HpWnLg-52">
          <mxGeometry y="26" width="167" height="44" as="geometry" />
        </mxCell>
        <mxCell id="VQyHc1rsR1vsa8HpWnLg-102" value="nombre" style="text;html=1;align=center;verticalAlign=middle;resizable=0;points=[];autosize=1;strokeColor=none;fillColor=none;" vertex="1" parent="VQyHc1rsR1vsa8HpWnLg-52">
          <mxGeometry y="70" width="167" height="30" as="geometry" />
        </mxCell>
        <mxCell id="VQyHc1rsR1vsa8HpWnLg-64" value="SUMINISTRO" style="swimlane;fontStyle=2;align=center;verticalAlign=top;childLayout=stackLayout;horizontal=1;startSize=26;horizontalStack=0;resizeParent=1;resizeLast=0;collapsible=1;marginBottom=0;rounded=0;shadow=0;strokeWidth=1;fillColor=#FFD966;" vertex="1" parent="WIyWlLk6GJQsqaUBKTNV-1">
          <mxGeometry x="70" y="380" width="170" height="190" as="geometry">
            <mxRectangle x="230" y="140" width="160" height="26" as="alternateBounds" />
          </mxGeometry>
        </mxCell>
        <mxCell id="VQyHc1rsR1vsa8HpWnLg-91" value="&lt;span style=&quot;text-align: left; text-wrap-mode: nowrap;&quot;&gt;&amp;nbsp; &amp;nbsp; id_proveedor(FK)(PK)&lt;/span&gt;" style="whiteSpace=wrap;html=1;align=center;verticalAlign=middle;treeFolding=1;treeMoving=1;newEdgeStyle={&quot;edgeStyle&quot;:&quot;elbowEdgeStyle&quot;,&quot;startArrow&quot;:&quot;none&quot;,&quot;endArrow&quot;:&quot;none&quot;};strokeColor=#FF6666;" vertex="1" parent="VQyHc1rsR1vsa8HpWnLg-64">
          <mxGeometry y="26" width="170" height="54" as="geometry" />
        </mxCell>
        <mxCell id="VQyHc1rsR1vsa8HpWnLg-71" value="                   fecha" style="text;align=left;verticalAlign=top;spacingLeft=4;spacingRight=4;overflow=hidden;rotatable=0;points=[[0,0.5],[1,0.5]];portConstraint=eastwest;rounded=0;shadow=0;html=0;" vertex="1" parent="VQyHc1rsR1vsa8HpWnLg-64">
          <mxGeometry y="80" width="170" height="26" as="geometry" />
        </mxCell>
        <mxCell id="VQyHc1rsR1vsa8HpWnLg-88" value="" style="edgeStyle=elbowEdgeStyle;elbow=vertical;sourcePerimeterSpacing=0;targetPerimeterSpacing=0;startArrow=none;endArrow=none;rounded=0;curved=0;" edge="1" target="VQyHc1rsR1vsa8HpWnLg-87" parent="VQyHc1rsR1vsa8HpWnLg-64">
          <mxGeometry relative="1" as="geometry">
            <mxPoint x="10" y="189" as="sourcePoint" />
          </mxGeometry>
        </mxCell>
        <mxCell id="VQyHc1rsR1vsa8HpWnLg-80" value="" style="verticalLabelPosition=bottom;shadow=0;dashed=0;align=center;html=1;verticalAlign=top;strokeWidth=1;shape=mxgraph.mockup.markup.line;strokeColor=#999999;" vertex="1" parent="VQyHc1rsR1vsa8HpWnLg-64">
          <mxGeometry y="106" width="170" height="20" as="geometry" />
        </mxCell>
        <mxCell id="VQyHc1rsR1vsa8HpWnLg-81" value="cantidad" style="text;html=1;align=center;verticalAlign=middle;resizable=0;points=[];autosize=1;strokeColor=none;fillColor=none;" vertex="1" parent="VQyHc1rsR1vsa8HpWnLg-64">
          <mxGeometry y="126" width="170" height="30" as="geometry" />
        </mxCell>
        <mxCell id="VQyHc1rsR1vsa8HpWnLg-89" style="edgeStyle=elbowEdgeStyle;rounded=0;orthogonalLoop=1;jettySize=auto;html=1;startArrow=none;endArrow=none;" edge="1" parent="WIyWlLk6GJQsqaUBKTNV-1">
          <mxGeometry relative="1" as="geometry">
            <mxPoint x="236" y="584" as="sourcePoint" />
            <mxPoint x="330" y="369" as="targetPoint" />
            <Array as="points">
              <mxPoint x="306" y="369" />
            </Array>
          </mxGeometry>
        </mxCell>
        <mxCell id="VQyHc1rsR1vsa8HpWnLg-87" value="&lt;span style=&quot;text-align: left; text-wrap-mode: nowrap;&quot;&gt;&amp;nbsp;id_pieza(FK)(PK)&lt;/span&gt;" style="whiteSpace=wrap;html=1;align=center;verticalAlign=middle;treeFolding=1;treeMoving=1;newEdgeStyle={&quot;edgeStyle&quot;:&quot;elbowEdgeStyle&quot;,&quot;startArrow&quot;:&quot;none&quot;,&quot;endArrow&quot;:&quot;none&quot;};strokeColor=#FFFF00;" vertex="1" parent="WIyWlLk6GJQsqaUBKTNV-1">
          <mxGeometry x="70" y="548" width="170" height="72" as="geometry" />
        </mxCell>
        <mxCell id="VQyHc1rsR1vsa8HpWnLg-95" style="edgeStyle=elbowEdgeStyle;rounded=0;orthogonalLoop=1;jettySize=auto;html=1;startArrow=none;endArrow=none;entryX=1;entryY=0.5;entryDx=0;entryDy=0;" edge="1" parent="WIyWlLk6GJQsqaUBKTNV-1" target="zkfFHV4jXpPFQw0GAbJ--1">
          <mxGeometry relative="1" as="geometry">
            <mxPoint x="400" y="23" as="targetPoint" />
            <mxPoint x="400.0000000000001" y="320" as="sourcePoint" />
            <Array as="points">
              <mxPoint x="410" y="40" />
            </Array>
          </mxGeometry>
        </mxCell>
        <mxCell id="VQyHc1rsR1vsa8HpWnLg-99" style="edgeStyle=elbowEdgeStyle;rounded=0;orthogonalLoop=1;jettySize=auto;html=1;startArrow=none;endArrow=none;entryX=0.5;entryY=0;entryDx=0;entryDy=0;" edge="1" parent="WIyWlLk6GJQsqaUBKTNV-1" source="VQyHc1rsR1vsa8HpWnLg-96" target="VQyHc1rsR1vsa8HpWnLg-52">
          <mxGeometry relative="1" as="geometry" />
        </mxCell>
        <mxCell id="VQyHc1rsR1vsa8HpWnLg-101" style="edgeStyle=elbowEdgeStyle;rounded=0;orthogonalLoop=1;jettySize=auto;html=1;startArrow=none;endArrow=none;entryX=0;entryY=0.5;entryDx=0;entryDy=0;" edge="1" parent="WIyWlLk6GJQsqaUBKTNV-1" target="zkfFHV4jXpPFQw0GAbJ--1">
          <mxGeometry relative="1" as="geometry">
            <mxPoint x="170" y="49" as="targetPoint" />
            <mxPoint x="160" y="380" as="sourcePoint" />
            <Array as="points">
              <mxPoint x="160" y="50" />
            </Array>
          </mxGeometry>
        </mxCell>
        <mxCell id="VQyHc1rsR1vsa8HpWnLg-109" value="" style="edgeStyle=orthogonalEdgeStyle;rounded=0;orthogonalLoop=1;jettySize=auto;html=1;" edge="1" parent="WIyWlLk6GJQsqaUBKTNV-1" source="VQyHc1rsR1vsa8HpWnLg-110" target="VQyHc1rsR1vsa8HpWnLg-112">
          <mxGeometry relative="1" as="geometry" />
        </mxCell>
        <mxCell id="VQyHc1rsR1vsa8HpWnLg-110" value="N" style="whiteSpace=wrap;html=1;fillColor=#B9E0A5;" vertex="1" parent="WIyWlLk6GJQsqaUBKTNV-1">
          <mxGeometry x="80" y="300" width="70" height="20" as="geometry" />
        </mxCell>
        <mxCell id="VQyHc1rsR1vsa8HpWnLg-111" style="edgeStyle=orthogonalEdgeStyle;rounded=0;orthogonalLoop=1;jettySize=auto;html=1;entryX=0.75;entryY=1;entryDx=0;entryDy=0;" edge="1" parent="WIyWlLk6GJQsqaUBKTNV-1" source="VQyHc1rsR1vsa8HpWnLg-112" target="VQyHc1rsR1vsa8HpWnLg-110">
          <mxGeometry relative="1" as="geometry">
            <Array as="points">
              <mxPoint x="133" y="350" />
              <mxPoint x="133" y="350" />
            </Array>
          </mxGeometry>
        </mxCell>
        <mxCell id="VQyHc1rsR1vsa8HpWnLg-112" value="M" style="whiteSpace=wrap;html=1;fillColor=#B5739D;" vertex="1" parent="WIyWlLk6GJQsqaUBKTNV-1">
          <mxGeometry x="80" y="350" width="70" height="20" as="geometry" />
        </mxCell>
        <mxCell id="VQyHc1rsR1vsa8HpWnLg-114" value="" style="edgeStyle=orthogonalEdgeStyle;rounded=0;orthogonalLoop=1;jettySize=auto;html=1;" edge="1" parent="WIyWlLk6GJQsqaUBKTNV-1" source="VQyHc1rsR1vsa8HpWnLg-115" target="VQyHc1rsR1vsa8HpWnLg-117">
          <mxGeometry relative="1" as="geometry" />
        </mxCell>
        <mxCell id="VQyHc1rsR1vsa8HpWnLg-115" value="N" style="whiteSpace=wrap;html=1;fillColor=#B9E0A5;" vertex="1" parent="WIyWlLk6GJQsqaUBKTNV-1">
          <mxGeometry x="230" y="300" width="70" height="20" as="geometry" />
        </mxCell>
        <mxCell id="VQyHc1rsR1vsa8HpWnLg-116" style="edgeStyle=orthogonalEdgeStyle;rounded=0;orthogonalLoop=1;jettySize=auto;html=1;entryX=0.75;entryY=1;entryDx=0;entryDy=0;" edge="1" parent="WIyWlLk6GJQsqaUBKTNV-1" source="VQyHc1rsR1vsa8HpWnLg-117" target="VQyHc1rsR1vsa8HpWnLg-115">
          <mxGeometry relative="1" as="geometry">
            <Array as="points">
              <mxPoint x="283" y="350" />
              <mxPoint x="283" y="350" />
            </Array>
          </mxGeometry>
        </mxCell>
        <mxCell id="VQyHc1rsR1vsa8HpWnLg-117" value="M" style="whiteSpace=wrap;html=1;fillColor=#B5739D;" vertex="1" parent="WIyWlLk6GJQsqaUBKTNV-1">
          <mxGeometry x="230" y="350" width="70" height="20" as="geometry" />
        </mxCell>
      </root>
    </mxGraphModel>
  </diagram>
</mxfile>
